<?xml version="1.0" encoding="UTF-8"?>
<svg id="Layer_1" xmlns="http://www.w3.org/2000/svg" version="1.1" viewBox="0 0 434.5 129.8">
  <!-- Generator: Adobe Illustrator 29.5.1, SVG Export Plug-In . SVG Version: 2.1.0 Build 141)  -->
  <defs>
    <style>
      .st0 {
        fill: #649cb8;
      }
    </style>
  </defs>
  <g>
    <g>
      <ellipse class="st0" cx="114.8" cy="64.1" rx="23.4" ry="24.6"/>
      <path class="st0" d="M160.3,73.9c-5.3,21.2-23.6,36.9-45.5,36.9-1.8,0-3.5-.2-5.3-.3-19.5-2.3-35.4-17.1-40.2-36.6h-18.5c.7,4.1,1.8,8,3.2,11.8-9.7-7.2-19.3-15.4-28.7-24.2,3.8-3.5,7.5-6.9,11.3-10.2.9-7.3,2.9-14.5,6.2-21.5,2.2-4.5,4.8-8.6,7.8-12.4C33.3,29.7,16.4,45.2,0,61.5h0c0,0,0,.1,0,.1,33.8,33.5,70,64.2,107.9,67.8,2.3.3,4.6.4,6.9.4,31.9,0,58.4-24.1,64-55.9h-18.5Z"/>
      <path class="st0" d="M186.4,99.8c-2.2,4.5-4.8,8.6-7.8,12.4,17.4-12.2,34.4-27.7,50.7-43.9h0c0,0-.2,0-.2,0h0C195.4,34.5,159.2,3.7,121.2.3c-2.1-.2-4.2-.3-6.4-.3-31.9,0-58.4,24.1-64,55.9h18.5c5.3-21.2,23.6-36.9,45.5-36.9h0c1.6,0,3.1.1,4.7.3,19.7,2.1,35.9,17,40.8,36.7h18.5c-.7-4-1.7-7.9-3.1-11.6,9.5,7.1,18.9,15.3,28.2,23.9h0c-3.8,3.5-7.5,6.9-11.3,10.2-.9,7.3-2.9,14.5-6.2,21.5Z"/>
    </g>
    <g>
      <path class="st0" d="M263,110.8l-17.3-51h11.4l11.1,35.8,11.1-35.8h11.1l-17.3,51h-10.1Z"/>
      <path class="st0" d="M293.3,69.1v-9.3h10v9.3h-10ZM293.3,110.8v-38.4h10v38.4h-10Z"/>
      <path class="st0" d="M330.5,84.7c-.5-3.7-2.5-4.9-7.1-4.9s-5.9.9-5.9,3.1,2.1,3.1,6.2,4.3c4.3,1.2,8.4,2.1,11.3,3.2,4,1.6,6.2,4.2,6.2,9.1,0,7.8-5.8,12.4-16.5,12.4s-18.1-5.4-18.2-13h10.3c0,3.5,3,5.6,7.8,5.6s6.7-1.1,6.7-3.9-2.8-3.5-6.1-4.3c-6.4-1.5-9.9-2.6-12.6-4.3-3.5-2.2-4.8-5.1-4.8-8.5,0-6.3,4.4-11.1,15.9-11.1s15.8,4.3,16.4,12.3h-9.6Z"/>
      <path class="st0" d="M344.3,69.1v-9.3h10v9.3h-10ZM344.3,110.8v-38.4h10v38.4h-10Z"/>
      <path class="st0" d="M358,92.1c0-11.9,7.5-19.7,19.4-19.7s19.2,7.8,19.2,19.7-7.5,19.7-19.2,19.7-19.4-8.1-19.4-19.7ZM386.6,92.1c0-7.6-3.1-11.3-9.1-11.3s-9.1,3.7-9.1,11.3,3.1,11.4,9.1,11.4,9.1-3.8,9.1-11.4Z"/>
      <path class="st0" d="M422,72.4c-6.1,0-9.9,2.3-12.2,6.5v-6.5h-9.5v38.4h10v-21.5c0-5.7,2.5-8.6,7.8-8.6s6.5,1.6,6.5,7.4v22.7h10.1v-26c0-8.1-5.3-12.5-12.5-12.5Z"/>
    </g>
  </g>
  <g>
    <path class="st0" d="M265.2,51.4v-14.6h-12.7v14.6h-6.8V18.9h6.8v12.2h12.7v-12.2h6.9v32.5h-6.9Z"/>
    <path class="st0" d="M290.5,51.4v-3.4c-1.7,2.7-4.2,4-7.5,4-4.8,0-8.2-3.6-8.2-8.9v-16.3h6.4v15.3c0,3,1.4,4.5,4.1,4.5s4.9-2.3,4.9-5.5v-14.3h6.3v24.5h-6Z"/>
    <path class="st0" d="M386.9,24.8v-5.9h6.4v5.9h-6.4ZM386.9,51.4v-24.5h6.4v24.5h-6.4Z"/>
    <path class="st0" d="M405.5,45.9c1.3,0,2.8-.6,3.9-1.6l3,5.4c-1.6,1.5-3.9,2.4-7,2.4-5.4,0-9.5-4-9.5-9.8v-21.5h6.4v6.1h5.7v4.5h-5.7v10.6c0,2.9,1.4,3.9,3.1,3.9Z"/>
    <path class="st0" d="M417.1,54.6c.6,2,2.5,3.1,5,3.1s6.1-2,6.1-5.3v-4c-.9,2.2-3.5,3.5-6.5,3.5-5,0-8.8-3.5-8.8-8.8v-16.3h6.4v15.3c0,3,1.4,4.6,4.1,4.6s4.9-1.9,4.9-4.6v-15.3h6.4v25.1c0,7.4-5.3,11.3-12,11.3s-8.9-2.1-10.6-5.7l5.1-3Z"/>
    <path class="st0" d="M325.6,26.9c-3,0-5.2,1.2-6.5,3.8-1.9-2.8-3.4-3.8-6.7-3.8s-5.4,1-7.1,4.1v-4.1h-6v24.5h6.4v-14.5c0-3.1,1.3-4.7,3.9-4.7s3.8,1,3.8,4.8v14.4h6.4v-14.3c0-2.9,1.7-5.1,4.1-5.1s3.8,2,3.8,4.9v14.5h6.2v-16.5c0-4.5-3.4-8-8.2-8Z"/>
    <path class="st0" d="M353.1,26.9v1.1h0v2.7c-1.8-2.5-4.2-3.7-7.2-3.7-6.2,0-9.9,5.1-9.9,12.3s4.4,12.8,10.4,12.8,5.2-1.1,6.7-3.5v2.9h6.2v-24.5h-6.3ZM348,46.9c-3.2,0-5.4-3-5.4-7.2s1.8-7.4,5.5-7.4,5.3,2.6,5.3,7.8-2.4,6.8-5.4,6.8Z"/>
    <path class="st0" d="M376.1,26.9c-3.9,0-6.3,1.5-7.8,4.1v-3.5h0v-.6h-6.1v24.5h6.4v-13.7c0-3.6,1.6-5.5,4.9-5.5s4.1,1,4.1,4.7v14.5h6.4v-16.5c0-5.2-3.4-8-8-8Z"/>
  </g>
</svg>